# xmcd
#
# Track frame offsets:
#	150
#	10328
#	36176
#	46123
#	89722
#	116150
#	145880
#	166900
#	199721
#	232278
#	238448
#	244804
#
# Disc length: 3682 seconds
#
# Revision: 1
# Processed by: cddbd v1.5.1PL2 Copyright (c) Steve Scherf et al.
# Submitted via: EasyCDDAExtractor 9.0.0.1
#
DISCID=ad0e600c
DTITLE=Guns and Roses - RDS Arena Dublin 09-06-06 Disc 2
DYEAR=2006
DGENRE=Hard Rock
TTITLE0=Robin Solo 
TTITLE1=Sweet Child O' Mine
TTITLE2=Band Jam 
TTITLE3=November Rain
TTITLE4=Better
TTITLE5=Madagascar
TTITLE6=My Michelle With Sebastian Bach
TTITLE7=Patience
TTITLE8=Nightrain
TTITLE9=Band Intro
TTITLE10=Robin Solo
TTITLE11=Paradise City
EXTD=
EXTT0=
EXTT1=
EXTT2=
EXTT3=
EXTT4=
EXTT5=
EXTT6=
EXTT7=
EXTT8=
EXTT9=
EXTT10=
EXTT11=
PLAYORDER=
